<svg xmlns="http://www.w3.org/2000/svg" width="720" height="200" viewBox="0 0 720 200" font-family="-apple-system,Segoe UI,sans-serif" role="img" aria-label="일별 클론·조회 추이">
<title>일별 클론·조회 추이 (2026-07-29 ~ 2026-08-29)</title>
<line x1="34" y1="174.0" x2="710" y2="174.0" stroke="#8b949e" stroke-opacity=".25"/><text x="28" y="178.0" font-size="10" fill="#8b949e" text-anchor="end">0</text><line x1="34" y1="95.0" x2="710" y2="95.0" stroke="#8b949e" stroke-opacity=".25"/><text x="28" y="99.0" font-size="10" fill="#8b949e" text-anchor="end">91</text><line x1="34" y1="16.0" x2="710" y2="16.0" stroke="#8b949e" stroke-opacity=".25"/><text x="28" y="20.0" font-size="10" fill="#8b949e" text-anchor="end">182</text><text x="34.0" y="192" font-size="10" fill="#8b949e" text-anchor="start">07-29</text><text x="382.9" y="192" font-size="10" fill="#8b949e" text-anchor="middle">08-14</text><text x="710.0" y="192" font-size="10" fill="#8b949e" text-anchor="end">08-29</text>
<polyline fill="none" stroke="#3b82f6" stroke-width="2" points="34.0,174.0 55.8,136.7 77.6,174.0 99.4,170.5 121.2,169.7 143.0,171.4 164.8,174.0 186.6,171.4 208.5,171.4 230.3,172.3 252.1,173.1 273.9,150.6 295.7,173.1 317.5,172.3 339.3,16.0 361.1,154.9 382.9,172.3 404.7,163.6 426.5,167.9 448.3,166.2 470.1,167.9 491.9,172.3 513.7,164.5 535.5,156.6 557.4,167.1 579.2,168.8 601.0,167.9 622.8,160.1 644.6,167.9 666.4,163.6 688.2,174.0 710.0,174.0"/>
<polyline fill="none" stroke="#f59e0b" stroke-width="2" points="34.0,174.0 55.8,167.9 77.6,174.0 99.4,174.0 121.2,174.0 143.0,174.0 164.8,174.0 186.6,174.0 208.5,174.0 230.3,174.0 252.1,174.0 273.9,174.0 295.7,174.0 317.5,174.0 339.3,161.8 361.1,171.4 382.9,174.0 404.7,174.0 426.5,174.0 448.3,174.0 470.1,174.0 491.9,174.0 513.7,169.7 535.5,174.0 557.4,172.3 579.2,174.0 601.0,174.0 622.8,174.0 644.6,173.1 666.4,174.0 688.2,174.0 710.0,174.0"/>
<circle cx="570" cy="12" r="4" fill="#3b82f6"/>
<text x="580" y="16" font-size="11" fill="#8b949e">clones</text>
<circle cx="642" cy="12" r="4" fill="#f59e0b"/>
<text x="652" y="16" font-size="11" fill="#8b949e">views</text>
</svg>
