<svg xmlns="http://www.w3.org/2000/svg" width="720" height="200" viewBox="0 0 720 200" font-family="-apple-system,Segoe UI,sans-serif" role="img" aria-label="일별 클론·조회 추이">
<title>일별 클론·조회 추이 (2026-07-29 ~ 2026-08-22)</title>
<line x1="34" y1="174.0" x2="710" y2="174.0" stroke="#8b949e" stroke-opacity=".25"/><text x="28" y="178.0" font-size="10" fill="#8b949e" text-anchor="end">0</text><line x1="34" y1="95.0" x2="710" y2="95.0" stroke="#8b949e" stroke-opacity=".25"/><text x="28" y="99.0" font-size="10" fill="#8b949e" text-anchor="end">91</text><line x1="34" y1="16.0" x2="710" y2="16.0" stroke="#8b949e" stroke-opacity=".25"/><text x="28" y="20.0" font-size="10" fill="#8b949e" text-anchor="end">182</text><text x="34.0" y="192" font-size="10" fill="#8b949e" text-anchor="start">07-29</text><text x="372.0" y="192" font-size="10" fill="#8b949e" text-anchor="middle">08-10</text><text x="710.0" y="192" font-size="10" fill="#8b949e" text-anchor="end">08-22</text>
<polyline fill="none" stroke="#3b82f6" stroke-width="2" points="34.0,174.0 62.2,136.7 90.3,174.0 118.5,170.5 146.7,169.7 174.8,171.4 203.0,174.0 231.2,171.4 259.3,171.4 287.5,172.3 315.7,173.1 343.8,150.6 372.0,173.1 400.2,172.3 428.3,16.0 456.5,154.9 484.7,172.3 512.8,163.6 541.0,167.9 569.2,166.2 597.3,167.9 625.5,172.3 653.7,164.5 681.8,174.0 710.0,174.0"/>
<polyline fill="none" stroke="#f59e0b" stroke-width="2" points="34.0,174.0 62.2,167.9 90.3,174.0 118.5,174.0 146.7,174.0 174.8,174.0 203.0,174.0 231.2,174.0 259.3,174.0 287.5,174.0 315.7,174.0 343.8,174.0 372.0,174.0 400.2,174.0 428.3,161.8 456.5,171.4 484.7,174.0 512.8,174.0 541.0,174.0 569.2,174.0 597.3,174.0 625.5,174.0 653.7,169.7 681.8,174.0 710.0,174.0"/>
<circle cx="570" cy="12" r="4" fill="#3b82f6"/>
<text x="580" y="16" font-size="11" fill="#8b949e">clones</text>
<circle cx="642" cy="12" r="4" fill="#f59e0b"/>
<text x="652" y="16" font-size="11" fill="#8b949e">views</text>
</svg>
