<svg xmlns="http://www.w3.org/2000/svg" width="720" height="200" viewBox="0 0 720 200" font-family="-apple-system,Segoe UI,sans-serif" role="img" aria-label="일별 클론·조회 추이">
<title>일별 클론·조회 추이 (2026-07-29 ~ 2026-08-23)</title>
<line x1="34" y1="174.0" x2="710" y2="174.0" stroke="#8b949e" stroke-opacity=".25"/><text x="28" y="178.0" font-size="10" fill="#8b949e" text-anchor="end">0</text><line x1="34" y1="95.0" x2="710" y2="95.0" stroke="#8b949e" stroke-opacity=".25"/><text x="28" y="99.0" font-size="10" fill="#8b949e" text-anchor="end">91</text><line x1="34" y1="16.0" x2="710" y2="16.0" stroke="#8b949e" stroke-opacity=".25"/><text x="28" y="20.0" font-size="10" fill="#8b949e" text-anchor="end">182</text><text x="34.0" y="192" font-size="10" fill="#8b949e" text-anchor="start">07-29</text><text x="385.5" y="192" font-size="10" fill="#8b949e" text-anchor="middle">08-11</text><text x="710.0" y="192" font-size="10" fill="#8b949e" text-anchor="end">08-23</text>
<polyline fill="none" stroke="#3b82f6" stroke-width="2" points="34.0,174.0 61.0,136.7 88.1,174.0 115.1,170.5 142.2,169.7 169.2,171.4 196.2,174.0 223.3,171.4 250.3,171.4 277.4,172.3 304.4,173.1 331.4,150.6 358.5,173.1 385.5,172.3 412.6,16.0 439.6,154.9 466.6,172.3 493.7,163.6 520.7,167.9 547.8,166.2 574.8,167.9 601.8,172.3 628.9,164.5 655.9,156.6 683.0,174.0 710.0,174.0"/>
<polyline fill="none" stroke="#f59e0b" stroke-width="2" points="34.0,174.0 61.0,167.9 88.1,174.0 115.1,174.0 142.2,174.0 169.2,174.0 196.2,174.0 223.3,174.0 250.3,174.0 277.4,174.0 304.4,174.0 331.4,174.0 358.5,174.0 385.5,174.0 412.6,161.8 439.6,171.4 466.6,174.0 493.7,174.0 520.7,174.0 547.8,174.0 574.8,174.0 601.8,174.0 628.9,169.7 655.9,174.0 683.0,174.0 710.0,174.0"/>
<circle cx="570" cy="12" r="4" fill="#3b82f6"/>
<text x="580" y="16" font-size="11" fill="#8b949e">clones</text>
<circle cx="642" cy="12" r="4" fill="#f59e0b"/>
<text x="652" y="16" font-size="11" fill="#8b949e">views</text>
</svg>
