<svg xmlns="http://www.w3.org/2000/svg" width="720" height="200" viewBox="0 0 720 200" font-family="-apple-system,Segoe UI,sans-serif" role="img" aria-label="일별 클론·조회 추이">
<title>일별 클론·조회 추이 (2026-07-29 ~ 2026-09-04)</title>
<line x1="34" y1="174.0" x2="710" y2="174.0" stroke="#8b949e" stroke-opacity=".25"/><text x="28" y="178.0" font-size="10" fill="#8b949e" text-anchor="end">0</text><line x1="34" y1="95.0" x2="710" y2="95.0" stroke="#8b949e" stroke-opacity=".25"/><text x="28" y="99.0" font-size="10" fill="#8b949e" text-anchor="end">91</text><line x1="34" y1="16.0" x2="710" y2="16.0" stroke="#8b949e" stroke-opacity=".25"/><text x="28" y="20.0" font-size="10" fill="#8b949e" text-anchor="end">182</text><text x="34.0" y="192" font-size="10" fill="#8b949e" text-anchor="start">07-29</text><text x="381.1" y="192" font-size="10" fill="#8b949e" text-anchor="middle">08-17</text><text x="710.0" y="192" font-size="10" fill="#8b949e" text-anchor="end">09-04</text>
<polyline fill="none" stroke="#3b82f6" stroke-width="2" points="34.0,174.0 52.3,136.7 70.5,174.0 88.8,170.5 107.1,169.7 125.4,171.4 143.6,174.0 161.9,171.4 180.2,171.4 198.4,172.3 216.7,173.1 235.0,150.6 253.2,173.1 271.5,172.3 289.8,16.0 308.1,154.9 326.3,172.3 344.6,163.6 362.9,167.9 381.1,166.2 399.4,167.9 417.7,172.3 435.9,164.5 454.2,156.6 472.5,167.1 490.8,168.8 509.0,167.9 527.3,160.1 545.6,167.9 563.8,163.6 582.1,165.3 600.4,167.1 618.6,144.5 636.9,163.6 655.2,165.3 673.5,167.1 691.7,171.4 710.0,174.0"/>
<polyline fill="none" stroke="#f59e0b" stroke-width="2" points="34.0,174.0 52.3,167.9 70.5,174.0 88.8,174.0 107.1,174.0 125.4,174.0 143.6,174.0 161.9,174.0 180.2,174.0 198.4,174.0 216.7,174.0 235.0,174.0 253.2,174.0 271.5,174.0 289.8,161.8 308.1,171.4 326.3,174.0 344.6,174.0 362.9,174.0 381.1,174.0 399.4,174.0 417.7,174.0 435.9,169.7 454.2,174.0 472.5,172.3 490.8,174.0 509.0,174.0 527.3,174.0 545.6,173.1 563.8,174.0 582.1,174.0 600.4,174.0 618.6,172.3 636.9,174.0 655.2,174.0 673.5,174.0 691.7,174.0 710.0,174.0"/>
<circle cx="570" cy="12" r="4" fill="#3b82f6"/>
<text x="580" y="16" font-size="11" fill="#8b949e">clones</text>
<circle cx="642" cy="12" r="4" fill="#f59e0b"/>
<text x="652" y="16" font-size="11" fill="#8b949e">views</text>
</svg>
