<svg xmlns="http://www.w3.org/2000/svg" width="720" height="200" viewBox="0 0 720 200" font-family="-apple-system,Segoe UI,sans-serif" role="img" aria-label="일별 클론·조회 추이">
<title>일별 클론·조회 추이 (2026-07-29 ~ 2026-09-14)</title>
<line x1="34" y1="174.0" x2="710" y2="174.0" stroke="#8b949e" stroke-opacity=".25"/><text x="28" y="178.0" font-size="10" fill="#8b949e" text-anchor="end">0</text><line x1="34" y1="95.0" x2="710" y2="95.0" stroke="#8b949e" stroke-opacity=".25"/><text x="28" y="99.0" font-size="10" fill="#8b949e" text-anchor="end">91</text><line x1="34" y1="16.0" x2="710" y2="16.0" stroke="#8b949e" stroke-opacity=".25"/><text x="28" y="20.0" font-size="10" fill="#8b949e" text-anchor="end">182</text><text x="34.0" y="192" font-size="10" fill="#8b949e" text-anchor="start">07-29</text><text x="379.2" y="192" font-size="10" fill="#8b949e" text-anchor="middle">08-22</text><text x="710.0" y="192" font-size="10" fill="#8b949e" text-anchor="end">09-14</text>
<polyline fill="none" stroke="#3b82f6" stroke-width="2" points="34.0,174.0 48.4,136.7 62.8,174.0 77.1,170.5 91.5,169.7 105.9,171.4 120.3,174.0 134.7,171.4 149.1,171.4 163.4,172.3 177.8,173.1 192.2,150.6 206.6,173.1 221.0,172.3 235.4,16.0 249.7,154.9 264.1,172.3 278.5,163.6 292.9,167.9 307.3,166.2 321.7,167.9 336.0,172.3 350.4,164.5 364.8,156.6 379.2,167.1 393.6,168.8 408.0,167.9 422.3,160.1 436.7,167.9 451.1,163.6 465.5,165.3 479.9,167.1 494.3,144.5 508.6,163.6 523.0,165.3 537.4,167.1 551.8,171.4 566.2,164.5 580.6,168.8 594.9,174.0 609.3,174.0 623.7,174.0 638.1,174.0 652.5,174.0 666.9,174.0 681.2,174.0 695.6,174.0 710.0,174.0"/>
<polyline fill="none" stroke="#f59e0b" stroke-width="2" points="34.0,174.0 48.4,167.9 62.8,174.0 77.1,174.0 91.5,174.0 105.9,174.0 120.3,174.0 134.7,174.0 149.1,174.0 163.4,174.0 177.8,174.0 192.2,174.0 206.6,174.0 221.0,174.0 235.4,161.8 249.7,171.4 264.1,174.0 278.5,174.0 292.9,174.0 307.3,174.0 321.7,174.0 336.0,174.0 350.4,169.7 364.8,174.0 379.2,172.3 393.6,174.0 408.0,174.0 422.3,174.0 436.7,173.1 451.1,174.0 465.5,174.0 479.9,174.0 494.3,172.3 508.6,174.0 523.0,174.0 537.4,174.0 551.8,174.0 566.2,174.0 580.6,174.0 594.9,174.0 609.3,174.0 623.7,174.0 638.1,174.0 652.5,174.0 666.9,174.0 681.2,174.0 695.6,174.0 710.0,174.0"/>
<circle cx="570" cy="12" r="4" fill="#3b82f6"/>
<text x="580" y="16" font-size="11" fill="#8b949e">clones</text>
<circle cx="642" cy="12" r="4" fill="#f59e0b"/>
<text x="652" y="16" font-size="11" fill="#8b949e">views</text>
</svg>
